<?xml version="1.0" encoding="UTF-8" standalone="no"?>
<svg
   xmlns:dc="http://purl.org/dc/elements/1.1/"
   xmlns:cc="http://creativecommons.org/ns#"
   xmlns:rdf="http://www.w3.org/1999/02/22-rdf-syntax-ns#"
   xmlns:svg="http://www.w3.org/2000/svg"
   xmlns="http://www.w3.org/2000/svg"
   viewBox="0 0 764.66669 665.44"
   height="665.44"
   width="764.66669"
   xml:space="preserve"
   id="svg2"
   version="1.1"><metadata
     id="metadata8"><rdf:RDF><cc:Work
         rdf:about=""><dc:format>image/svg+xml</dc:format><dc:type
           rdf:resource="http://purl.org/dc/dcmitype/StillImage" /></cc:Work></rdf:RDF></metadata><defs
     id="defs6" /><g
     transform="matrix(1.3333333,0,0,-1.3333333,0,665.44)"
     id="g10"><g
       transform="scale(0.1)"
       id="g12"><path
         id="path14"
         style="fill:#231f20;fill-opacity:1;fill-rule:nonzero;stroke:none"
         d="m 5435.41,2690.9 c 66.25,-0.86 133.3,-4.25 198.67,11.88 34.8,8.49 45,46.7 50.08,78.1 -28.85,-22.91 -53.48,-54.33 -91.68,-61.97 -51.78,-11.03 -105.28,-15.27 -157.07,-28.01" /><path
         id="path16"
         style="fill:#231f20;fill-opacity:1;fill-rule:nonzero;stroke:none"
         d="m 5678.22,2700.24 c -66.21,-25.47 -137.52,-32.27 -207.99,-34.81 -32.27,0.84 -69.63,-2.55 -95.1,20.38 -32.24,28.86 -54.32,65.37 -81.49,97.63 -126.49,168.95 -246.21,342.13 -375.26,507.7 -30.56,43.28 -86.58,50.08 -130.74,73.85 67.91,78.1 111.21,175.74 133.3,276.77 37.35,-31.41 70.45,-67.07 95.92,-108.67 85.76,-138.38 169.79,-276.78 253.85,-416 53.49,-84.06 95.09,-175.74 151.96,-258.1 67.09,11.03 138.4,14.43 201.21,-16.97 37.37,-19.53 77.27,-42.46 96.8,-81.51 11.87,-29.7 -18.67,-50.93 -42.46,-60.27 z M 4690,1464.95 c 0.84,-66.21 10.2,-133.29 1.72,-199.52 -1.72,-27.14 -30.58,-38.2 -51.81,-48.37 -86.6,-36.53 -173.19,-71.33 -262.33,-101.04 -3.89,-1.35 -7.81,-2.6 -11.71,-3.93 -77.64,56.24 -140.9,129.89 -220.9,182.58 -86.61,58.84 -199.54,64.88 -297.15,34.6 -3.42,-0.85 -9.34,-4.31 -11.9,-6.04 -70.45,-35.47 -129.04,-89.09 -187.61,-141.02 -2.56,-2.59 -6.8,-6.9 -9.34,-9.49 -65.39,-62.29 -149.41,-108.99 -240.27,-110.72 -82.35,-4.35 -164.71,25.07 -230.92,76.11 -60.28,45.85 -114.63,99.48 -181.68,135.8 -50.96,27.69 -106.99,45 -164.71,47.59 -37.37,4.32 -78.97,1.73 -110.37,25.95 -69.63,54.5 -97.64,149.64 -176.59,192.04 -81.5,44.11 -139.24,116.76 -196.12,188.58 -88.29,35.46 -187.63,70.05 -281.86,36.32 -52.64,-12.98 -102.73,-51.9 -158.76,-37.2 88.29,-106.39 138.38,-238.75 177.43,-371.09 14.44,-47.58 25.47,-99.48 8.49,-147.92 -11.88,-30.28 -32.26,-61.43 -63.67,-72.68 -42.45,-12.97 -90.84,1.74 -120.56,33.73 -32.26,32.9 -59.42,71.83 -98.48,97.78 -90,63.14 -206.29,67.46 -310.72,51.02 -75.48,-11.56 -143.14,-57.19 -187.53,-120.11 -2.01,0.74 -4.04,1.43 -6.05,2.16 -17.83,7.64 -40.74,15.28 -46.7,36.51 -21.21,60.27 -7.62,124.8 -6.78,186.77 11.88,239.41 19.53,478.82 34.81,717.39 54.34,-29.72 90.84,-81.5 142.64,-114.6 84.04,-56.06 172.33,-105.3 262.33,-151.98 38.2,-20.37 72.16,-47.53 107.82,-71.32 36.51,-23.77 73.84,-46.68 106.97,-74.71 56.03,-14.43 106.12,23.77 158.76,36.5 94.23,33.11 193.57,-0.84 281.86,-35.64 41.59,-11.04 80.65,10.17 117.17,26.31 22.08,10.19 46.69,18.67 64.52,36.5 37.34,44.16 44.98,108.67 91.68,146.04 33.96,27.16 66.22,57.71 108.67,72.15 88.3,31.42 174.91,70.46 264.89,98.49 78.94,24.61 158.77,48.39 236.01,78.96 65.4,26.3 122.27,69.61 182.52,106.13 33.13,20.37 73.05,22.07 110.38,24.61 -20.36,-45.84 -47.52,-89.14 -71.29,-133.28 -11.9,-19.53 -14.46,-42.46 -13.6,-64.54 0,-44.14 -25.49,-85.75 -15.27,-129.89 24.61,-132.44 65.37,-260.64 102.71,-389.69 39.07,-139.22 92.56,-275.06 122.27,-416.84 2.54,2.54 6.78,6.78 9.34,9.32 -13.58,71.32 -34.83,140.09 -57.74,209.7 -52.64,163.01 -102.73,326.87 -144.33,492.42 -9.34,40.76 -20.36,80.66 -22.93,122.26 -2.54,33.11 14.43,63.67 26.32,93.38 137.56,-32.25 278.48,-44.98 419.42,-61.11 -33.99,-35.67 -70.49,-68.77 -106.13,-101.9 28.86,-63.67 63.67,-124.8 89.98,-189.31 20.39,-45 9.33,-94.24 5.09,-140.93 -8.47,-95.94 -22.93,-190.18 -22.07,-286.12 2.56,1.7 8.48,5.1 11.9,5.94 1.7,117.17 19.53,232.64 28.86,348.94 3.4,32.26 -6.79,64.53 -19.53,93.4 -24.63,55.17 -52.63,108.67 -78.96,163 33.96,33.95 64.53,73.85 107.83,98.48 49.26,12.74 101.88,-13.57 151.95,0 28.01,15.27 49.26,40.74 73.03,62.83 108.67,102.73 219.9,203.76 327.72,308.18 56.89,58.57 143.47,61.97 216.48,89.14 13.57,-345.53 22.91,-691.09 34.8,-1036.62 z m 166.39,-178.29 c 16.13,-124.78 35.67,-248.75 51.8,-373.551 5.12,-23.769 -17.81,-36.5 -32.25,-49.238 C 4769.81,781.512 4647.56,722.09 4524.44,672 4254.48,565.02 3967.52,508.148 3680.57,471.648 3443.7,444.48 3204.26,430.039 2965.73,430.039 2590.45,427.5 2214.36,454.648 1846.74,534.461 c -163.84,35.66 -325.16,83.199 -480.52,146.871 -109.53,46.699 -218.19,99.34 -312.44,172.348 9.35,130.742 22.08,261.5 35.66,392.24 282.71,-118.01 576.47,-208.01 876.17,-270.818 365.05,-76.422 737.77,-115.473 1110.47,-112.071 348.09,5.078 697.01,49.239 1034.06,137.539 258.11,67.91 510.26,160.45 746.25,286.09 z m 229.24,-520.422 c 44.14,-59.437 69.63,-129.886 86.6,-201.218 -56.87,11.902 -111.21,33.109 -168.1,44.14 -0.84,-20.371 -1.68,-40.738 -2.54,-61.109 -21.21,41.597 -42.44,84.879 -78.95,115.469 -22.07,20.371 -50.96,31.41 -78.12,42.441 31.42,53.48 61.13,109.508 96.79,160.449 50.08,-29.711 108.68,-51.781 144.32,-100.172 z m -273.36,11.891 c 28.87,21.23 57.72,41.582 86.58,61.133 -22.07,-39.063 -45,-78.961 -69.63,-116.332 -5.91,17.84 -11.87,36.511 -16.95,55.199 z M 3486.14,351.941 c -358.26,-56.043 -726.74,-51.8 -1082.47,16.969 -102.72,22.07 -205.44,48.399 -303.93,84.059 500.06,-69.629 1008.6,-73.02 1511.2,-22.09 102.74,9.363 204.61,28.871 306.49,39.91 -136.7,-60.277 -284.42,-93.379 -431.29,-118.848 z M 1114.06,698.332 c -15.28,31.398 -27.17,65.367 -38.2,98.469 17.83,-11.031 35.66,-22.93 53.5,-34.801 -5.09,-21.23 -9.34,-42.461 -15.3,-63.668 z M 1006.24,571.82 C 987.566,518.332 991.816,459.75 991.816,403.719 972.285,441.922 955.313,480.98 934.922,518.332 895.879,484.379 869.563,439.379 833.895,402.879 c 8.5,58.57 26.339,115.453 42.46,171.48 14.426,47.539 29.708,95.942 59.415,135.84 31.418,41.602 67.08,79.801 107.83,112.071 17.84,-50.938 43.29,-100.18 52.63,-153.668 -25.46,-36.512 -73,-53.481 -89.99,-96.782 z M 592.793,2634.01 c -134.148,117.17 -217.344,291.21 -224.141,470.35 84.911,-88.3 173.203,-175.74 278.477,-238.57 99.336,-59.44 219.883,-67.07 332.793,-64.54 64.518,2.56 129.888,11.9 191.028,34.81 37.36,14.45 76.4,-5.92 106.98,-27.15 35.64,-25.47 46.68,-70.47 50.09,-112.07 4.25,-52.64 4.25,-106.13 -3.41,-157.91 -233.47,-121.41 -536.544,-80.66 -731.817,95.08 z m -134.148,829.47 c 9.335,-53.49 16.98,-118.03 67.918,-149.43 62.832,-36.51 137.539,-12.74 200.371,11.03 4.238,-44.98 13.586,-95.08 50.937,-124.8 51.777,-43.28 121.399,-63.67 188.484,-59.42 48.375,3.4 87.425,34.81 121.395,67.07 46.69,-36.52 96.78,-74.72 116.31,-132.44 14.43,-45 23.76,-92.54 17.83,-139.24 -5.09,-34.8 -28.02,-67.91 -61.99,-79.8 -71.3,-27.17 -147.71,-32.27 -223.279,-32.27 -93.391,0.84 -190.156,11.04 -271.68,59.44 -82.343,47.54 -153.664,111.21 -221.582,177.44 -24.609,26.31 -52.629,50.08 -73.007,79.8 -2.539,112.91 30.566,225.82 88.293,322.62 z m 39.91,61.97 c 123.093,167.25 328.554,272.52 536.555,266.59 -54.34,-46.7 -110.376,-91.69 -156.215,-146.04 -51.786,-59.42 -90.829,-129.04 -120.543,-202.05 -12.747,-28.87 -17.832,-59.43 -31.418,-87.44 -48.399,-30.57 -109.532,-46.7 -165.567,-33.13 -48.387,13.6 -68.762,67.09 -73.847,112.07 -2.547,30.57 -10.196,64.54 11.035,90 z m 599.385,264.04 c 105.26,-9.35 206.29,-48.39 296.29,-103.58 -9.34,-40.75 -26.32,-77.26 -38.2,-117.16 -7.63,-31.41 45.84,-57.73 17.83,-86.6 -26.32,-32.26 -71.32,-16.97 -106.13,-16.97 -56.88,4.24 -111.21,-29.73 -137.54,-78.96 -23.75,-43.31 -24.61,-95.08 -47.54,-139.24 -28,-48.4 -79.8,-86.6 -137.545,-83.21 -51.765,1.7 -104.414,17 -146.023,49.26 -45.84,35.65 -55.187,101.88 -41.594,156.21 15.285,57.73 41.594,112.91 71.321,165.55 51.796,91.69 129.902,165.56 212.241,229.23 16.98,11.88 34.81,28.86 56.89,25.47 z m 410.92,-544.21 c 27.17,-151.12 42.43,-303.93 60.28,-456.76 0.84,-16.13 5.93,-34.8 -5.12,-48.38 -55.16,-78.12 -129.88,-140.94 -213.08,-188.48 2.54,73.85 10.19,151.12 -16.13,221.59 -18.68,49.24 -68.78,74.7 -116.32,90 43.31,72.15 31.41,161.29 1.7,236.01 -22.91,53.48 -71.3,88.28 -113.75,125.65 -0.86,24.63 13.58,47.54 17.83,72.17 11.87,46.69 27.16,99.31 71.31,126.49 57.72,40.75 133.28,-6.79 191.86,33.11 67.08,-50.93 106.96,-129.9 121.42,-211.4 z m -131.61,317.53 c 13.59,35.65 26.32,71.31 39.91,106.12 120.55,-87.44 210.55,-215.64 250.45,-359.12 49.25,-174.04 23.78,-370.16 -73.87,-523.83 -16.12,125.65 -28.85,252.15 -47.55,377.79 -11.01,73.87 -22.07,151.14 -61.11,217.35 -20.38,34.81 -48.39,64.53 -78.11,90.84 3.38,33.96 -11.03,63.68 -29.72,90.85 z M 2636.31,1970.95 c -22.93,-15.27 -48.4,-29.7 -61.13,-55.17 -22.07,-38.21 -40.75,-78.97 -61.99,-118.03 -128.19,19.53 -255.53,50.1 -383.72,70.47 -89.16,1.7 -178.3,-9.34 -268.3,-12.74 -49.23,-1.68 -108.65,-19.51 -150.27,18.69 -25.46,16.14 -20.38,50.08 -23.77,75.55 40.76,30.57 79.81,67.07 129.89,78.97 95.96,23.77 191.88,45 287.82,69.61 61.12,16.13 123.94,18.69 186.78,26.32 32.27,5.1 67.07,4.24 95.07,-14.43 82.35,-49.24 168.95,-89.16 249.62,-139.24 z m -1.7,19.53 c -28.87,9.34 -53.5,26.31 -79.81,39.91 -63.67,35.66 -129.04,67.91 -191.02,106.11 253,144.34 509.41,281.86 763.24,424.5 38.2,21.21 65.37,57.74 106.97,72.17 123.1,41.6 238.57,101.87 359.98,148.57 16.97,-143.49 33.11,-290.35 88.3,-426.19 -77.27,-12.73 -154.51,-21.23 -232.64,-32.26 -15.27,-1.7 -31.4,-5.94 -44.98,-15.28 -63.67,-39.06 -123.1,-84.9 -193.59,-112.07 -126.5,-48.4 -258.93,-80.65 -384.57,-133.29 -63.68,-22.93 -125.67,-53.49 -191.88,-72.17 z m 715.71,1163.96 c -123.13,-81.51 -263.19,-131.6 -398.19,-189.32 -100.19,-41.6 -200.37,-84.04 -300.53,-124.8 -44.16,-16.99 -79.82,-49.24 -112.09,-82.35 -27.16,-44.16 -36.49,-100.19 -78.1,-133.3 -28.87,-18.67 -65.37,-19.53 -98.47,-16.13 -34.82,4.24 -74.72,15.27 -91.71,48.4 -12.73,29.71 1.71,62.83 16.99,88.3 27.17,42.44 63.67,79.78 106.97,106.11 75.55,40.76 161.31,65.37 230.92,118.01 131.6,96.8 262.33,195.27 393.93,292.05 52.64,39.06 112.07,67.93 168.11,101.04 52.64,-71.31 106.11,-140.94 162.17,-208.01 z m 710.58,825.21 c -51.77,-67.06 -101.87,-135.84 -160.47,-197.81 -27.14,-30.56 -69.59,-38.2 -107.79,-49.24 -9.33,20.37 -20.39,39.9 -30.58,59.44 -28.01,-11.9 -56.02,-24.63 -84.05,-37.37 -109.53,69.63 -224.98,135.84 -314.12,231.78 -28.03,34.8 -44.14,77.26 -60.29,118.01 22.93,-3.4 45.86,-8.49 69.63,-9.34 30.54,16.99 53.49,45 80.66,67.07 60.26,50.1 120.55,102.73 191,139.24 28.04,16.98 62.85,13.58 91.72,-0.86 67.91,-33.11 123.08,-86.59 183.38,-131.59 26.3,-16.98 23.76,-52.63 43.28,-74.71 31.42,-39.05 66.23,-75.56 97.63,-114.62 z m -2689.58,313.29 c 1.7,140.93 -0.85,281.86 7.63,422.79 247.07,-33.11 495.83,-56.03 744.57,-71.32 464.39,-28.02 929.63,-31.4 1394.04,-12.73 356.57,16.98 712.29,43.3 1065.47,92.54 6.8,-257.24 18.67,-513.63 23.79,-770.04 -43.32,27.17 -86.62,58.6 -138.4,67.07 -64.53,11.9 -130.74,9.34 -196.11,6.8 -70.47,-4.24 -143.5,-5.1 -211.41,-28.87 -28,32.27 -59.41,63.68 -85.74,98.49 -15.29,18.68 -16.13,44.15 -17.81,67.92 -3.42,71.31 -41.62,134.14 -73.89,196.97 -38.2,64.51 -83.18,136.68 -158.75,162.15 -104.43,34.81 -224.14,45.85 -326.01,-3.4 -68.77,-33.11 -136.68,-84.04 -161.31,-159.61 -20.37,-61.97 -28.01,-129.89 -15.28,-194.41 5.08,-26.32 30.57,-38.2 49.24,-53.5 30.55,-20.37 39.05,-58.57 55.18,-89.14 24.63,-51.78 71.33,-87.44 113.77,-123.1 55.17,-48.38 120.54,-84.05 180.84,-125.65 17.83,-11.03 35.66,-25.47 57.71,-28.86 27.19,4.24 51.8,18.67 77.27,28.86 8.49,-14.43 16.97,-29.71 25.47,-45 -57.74,-18.67 -122.25,-20.37 -174.91,-53.47 -125.62,-86.6 -260.62,-157.93 -388.8,-240.28 -35.69,-19.53 -39.07,-66.23 -73.03,-87.44 -39.04,-23.77 -80.67,-42.46 -118.01,-69.61 -112.91,-81.52 -224.14,-166.4 -336.2,-248.77 -42.45,-31.4 -84.06,-65.37 -131.6,-89.98 -47.54,-24.63 -96.77,-44.16 -145.17,-67.07 -56.04,-28.03 -103.59,-72.17 -136.68,-124.8 -17.83,-29.71 -32.27,-68.77 -13.59,-101.04 20.36,-34.8 61.98,-48.4 99.34,-51.78 39.88,-3.39 84.89,-1.71 114.62,28.01 42.44,40.76 48.38,106.14 91.67,146.88 28.02,27.17 61.99,48.4 97.63,62.83 170.66,69.61 340.45,140.92 509.41,212.25 63.68,26.3 120.55,65.37 182.52,95.07 20.39,-14.43 43.3,-43.3 70.47,-26.3 93.38,42.44 181.68,95.07 274.22,139.23 66.23,-99.33 133.28,-196.97 195.27,-298.84 -85.74,-33.13 -168.94,-72.17 -253.86,-106.14 -44.12,-15.27 -63.65,-65.37 -107.8,-79.8 -78.96,-30.57 -154.53,-67.07 -232.63,-98.48 -41.6,-16.13 -86.58,-27.17 -122.27,-55.19 -33.96,-27.17 -68.75,-52.64 -106.95,-72.17 -206.31,-112.91 -411.76,-227.52 -618.07,-341.29 -45.01,-23.77 -88.3,-55.18 -139.23,-62.81 -63.67,-9.35 -128.2,-9.35 -190.19,-22.92 -83.19,-18.69 -165.55,-41.6 -248.75,-60.3 -49.23,14.44 -85.74,51.8 -123.94,83.22 -43.3,39.04 -87.45,77.24 -129.04,117.15 -67.08,64.53 -86.61,163.84 -155.38,227.53 -16.97,17.84 -41.6,3.4 -56.03,-11.03 -39.06,-38.2 -67.92,-88.3 -119.72,-112.07 -2.54,24.61 -5.08,49.24 -5.93,74.71 1.69,16.97 2.54,34.8 10.19,50.09 22.92,18.68 51.79,28.87 77.25,43.3 203.76,115.45 341.3,339.59 348.08,573.91 6.8,163.01 -46.7,326.86 -146.86,455.06 -60.28,79.8 -141.78,140.09 -226.68,191.02 5.09,181.68 15.28,362.53 20.38,543.36 z M 5734.25,2755.41 c -13.57,42.45 -54.31,67.08 -90,89.15 -65.35,38.2 -143.47,39.9 -216.48,27.16 -44.14,63.68 -75.57,135 -117.16,200.37 -94.24,157.07 -189.32,314.13 -286.09,469.5 -22.93,38.2 -55.2,69.61 -85.75,101.01 -25.46,22.93 -13.59,64.53 -41.62,84.9 -85.74,68.77 -170.62,136.7 -258.08,202.08 -11.04,274.21 -16.14,549.28 -28.85,824.35 -59.45,-0.84 -117.17,-13.57 -175.76,-19.52 -410.9,-49.24 -825.2,-74.71 -1239.51,-83.2 -558.64,-8.48 -1118.13,11.89 -1672.51,76.41 -57.74,5.94 -115.47,20.37 -174.04,17.83 -1.71,-102.72 -5.1,-205.46 -5.96,-308.18 0.86,-224.14 -14.42,-448.26 -21.22,-672.4 -92.53,35.65 -190.17,61.97 -291.2,61.13 -151.973,0 -303.946,-50.95 -423.653,-145.19 -131.594,-101.02 -224.972,-249.59 -257.246,-412.6 -27.164,-139.24 -12.73,-287.81 45.859,-417.7 56.016,-128.2 153.665,-237.73 271.668,-311.58 -70.457,-24.63 -151.121,-34.8 -208.855,-85.76 38.223,-23.77 81.504,-35.65 121.406,-54.32 25.469,-11.89 51.797,-30.56 56.055,-60.29 16.113,-92.54 4.226,-187.62 13.562,-281.87 56.039,58.6 113.782,116.32 182.539,160.46 39.043,23.77 77.25,54.34 122.258,67.07 24.617,-4.23 47.537,-16.97 70.447,-26.31 73.88,-31.42 147.74,-63.67 219.9,-98.47 3.39,-45.01 0,-89.15 -2.53,-133.29 -10.2,-235.18 -22.09,-469.5 -32.28,-704.68 -1.69,-30.57 1.7,-61.11 6.8,-91.68 -51.8,17.83 -99.33,50.94 -154.51,56.87 -17,-151.11 -28.87,-303.078 -43.3,-454.191 -40.757,-50.098 -93.406,-90 -122.261,-148.578 -28.867,-61.129 -45,-126.5 -63.684,-191.871 -11.882,-50.098 -28.855,-100.18 -33.113,-152.821 55.188,37.352 84.063,100.18 129.902,146.02 30.579,-46.68 39.063,-108.668 81.506,-146.879 5.09,77.269 -10.18,157.07 16.98,231.781 20.38,40.738 66.22,58.578 100.19,85.738 10.17,31.43 12.74,63.68 18.67,95.942 215.65,-120.551 453.36,-196.949 693.63,-249.59 48.38,-11.031 98.48,-16.129 144.32,-36.5 295.45,-126.512 618.91,-174.051 938.99,-180.84 347.24,-5.101 702.13,31.399 1026.42,163.008 54.34,20.371 105.28,53.473 162.99,65.371 236.88,53.469 471.21,129.879 680.92,253.84 7.64,-27.16 15.25,-53.488 23.75,-80.66 30.58,-5.098 62.83,-11.871 86.62,-33.098 49.22,-39.91 77.25,-100.184 93.38,-160.473 8.49,-28.847 7.64,-61.98 30.55,-84.05 5.95,58.582 -4.24,117.171 -5.96,175.75 59.45,-13.598 115.49,-37.368 175.76,-45 -15.27,85.761 -45.84,170.64 -98.48,241.113 -38.2,52.637 -101.87,73.867 -154.53,108.668 -16.97,125.65 -35.64,252.15 -52.63,377.79 -3.38,22.93 -8.48,45 -16.12,66.23 -51.79,-22.93 -99.33,-53.49 -151.13,-75.56 -1.7,174.04 -11.04,348.08 -15.27,522.14 -8.5,243.65 -16.14,487.31 -24.63,731.82 30.56,14.44 66.23,22.91 89.16,49.24 26.31,33.95 42.44,75.55 52.63,118.01 17.82,70.47 4.24,143.48 -7.63,213.94 -12.76,62.84 -30.57,126.51 -71.33,176.59 -17.81,22.93 -46.7,31.42 -67.93,50.09 -11.88,95.94 -22.05,192.72 -23.77,290.36 39.9,-21.22 78.11,-46.7 122.27,-56.88 48.39,-18.69 105.27,-29.73 135.84,-74.71 126.5,-163 244.49,-332.81 368.45,-497.52 27.17,-34.8 51.79,-73 84.06,-102.71 28,-26.33 68.75,-23.77 103.57,-23.77 71.31,1.7 145.18,8.48 212.25,35.64 26.3,10.2 57.71,32.27 51.77,65.37" /><path
         id="path18"
         style="fill:#231f20;fill-opacity:1;fill-rule:nonzero;stroke:none"
         d="m 3685.65,3811.56 c -94.22,56.88 -181.68,123.1 -277.62,175.74 55.2,-52.64 106.12,-111.22 173.21,-149.42 38.2,-21.23 72.16,-50.94 114.6,-65.38 23.77,16.99 39.05,41.61 56.9,64.54 24.61,32.24 53.48,61.97 70.45,99.32 19.53,43.29 27.17,89.99 33.12,136.69 -22.93,-55.19 -33.96,-117.17 -74.72,-163.01 -30.57,-34.8 -64.53,-66.23 -95.94,-98.48" /><path
         id="path20"
         style="fill:#231f20;fill-opacity:1;fill-rule:nonzero;stroke:none"
         d="m 309.223,3553.46 c 22.07,-3.39 51.8,-8.48 67.925,11.05 7.625,24.62 -1.699,50.08 -12.734,72.15 -15.293,30.57 -35.66,59.44 -61.129,82.36 -23.769,22.92 -61.976,34.81 -93.387,19.53 -33.113,-16.13 -41.609,-59.42 -28.875,-90.85 18.684,-54.34 75.571,-82.34 128.2,-94.24" /><path
         id="path22"
         style="fill:#231f20;fill-opacity:1;fill-rule:nonzero;stroke:none"
         d="m 5032.99,3454.99 c -10.17,-21.24 -28.86,-45 -10.17,-67.08 94.24,-143.47 191.01,-284.41 287.79,-426.19 16.99,-25.47 36.51,-49.23 58.58,-71.31 -24.61,60.28 -62.8,114.61 -95.06,171.49 -79.83,130.74 -157.91,263.18 -241.14,393.09" /><path
         id="path24"
         style="fill:#231f20;fill-opacity:1;fill-rule:nonzero;stroke:none"
         d="m 235.367,3101.8 c 11.035,33.97 -22.926,60.28 -45,79.81 -39.051,27.16 -83.199,61.97 -133.285,56.03 -71.3164,-21.21 -76.414,-134.98 -11.8867,-167.24 33.957,-11.9 70.4647,-5.94 105.2737,-2.54 29.711,5.07 64.519,9.33 84.898,33.94" /><path
         id="path26"
         style="fill:#231f20;fill-opacity:1;fill-rule:nonzero;stroke:none"
         d="m 2677.06,2874.28 c 39.89,12.74 78.96,28.87 117.16,45 144.32,62.81 291.2,121.41 435.51,185.92 -9.33,16.97 -18.67,33.96 -28.01,51.8 -44.16,-19.53 -86.58,-44.16 -129.04,-67.07 -131.58,-72.17 -265.74,-139.24 -395.62,-215.65" /><path
         id="path28"
         style="fill:#231f20;fill-opacity:1;fill-rule:nonzero;stroke:none"
         d="m 320.258,2760.51 c -40.742,-6.79 -86.59,-28.86 -97.625,-73.01 -13.586,-39.9 5.094,-95.93 52.625,-102.73 48.398,-8.5 86.597,33.11 106.976,72.17 12.746,25.47 33.118,55.17 22.922,84.9 -19.511,26.31 -56.875,22.07 -84.898,18.67" /><path
         id="path30"
         style="fill:#231f20;fill-opacity:1;fill-rule:nonzero;stroke:none"
         d="m 2312.85,2683.25 c 11.88,-10.18 25.46,-17.82 39.04,-25.47 -7.65,30.56 -14.42,61.99 -20.39,93.4 -11.87,-20.37 -31.39,-43.3 -18.65,-67.93" /><path
         id="path32"
         style="fill:#231f20;fill-opacity:1;fill-rule:nonzero;stroke:none"
         d="m 3560.84,2740.98 c -73,-30.57 -145.17,-65.37 -214.78,-104.43 76.43,4.26 151.11,20.39 224.98,34.82 -2.56,22.93 -5.94,46.7 -10.2,69.61" /><path
         id="path34"
         style="fill:#231f20;fill-opacity:1;fill-rule:nonzero;stroke:none"
         d="m 3230.61,2246.02 c 50.94,18.67 84.9,64.53 110.37,109.53 -77.28,-27.17 -151.13,-64.53 -226.7,-95.94 -103.57,-46.7 -209.69,-88.3 -310.73,-140.08 81.51,16.13 158.76,44.99 238.58,67.06 62.82,20.39 126.49,36.52 188.48,59.43" /><path
         id="path36"
         style="fill:#231f20;fill-opacity:1;fill-rule:nonzero;stroke:none"
         d="m 1750.81,1949.72 c 95.93,44.16 200.36,64.53 298.84,101.04 -73.85,-8.5 -145.17,-30.57 -218.19,-45.84 -33.96,-5.96 -58.57,-30.57 -80.65,-55.2" /><path
         id="path38"
         style="fill:#231f20;fill-opacity:1;fill-rule:nonzero;stroke:none"
         d="m 557.98,2005.76 c -56.039,-16.98 -100.187,-68.77 -114.621,-124.81 -14.421,-50.94 50.957,-95.08 94.246,-67.07 47.54,33.13 68.762,95.94 65.375,151.97 0.836,23.77 -20.382,48.4 -45,39.91" /><path
         id="path40"
         style="fill:#231f20;fill-opacity:1;fill-rule:nonzero;stroke:none"
         d="m 2722.05,1945.48 c -53.49,-14.43 -60.28,-95.07 -25.48,-131.6 39.91,-6.78 63.68,37.37 72.18,69.63 10.19,29.71 -12.73,68.77 -46.7,61.97" /><path
         id="path42"
         style="fill:#231f20;fill-opacity:1;fill-rule:nonzero;stroke:none"
         d="m 3537.09,1935.29 c -19.53,11.89 -42.46,12.73 -64.53,16.99 13.58,-73.87 40.75,-143.5 61.14,-215.64 36.5,-118.02 67.91,-238.57 109.51,-355.74 -19.53,141.8 -50.94,281.87 -76.41,422.81 -10.19,43.3 -11.89,89.98 -29.71,131.58" /><path
         id="path44"
         style="fill:#231f20;fill-opacity:1;fill-rule:nonzero;stroke:none"
         d="m 2550.57,1939.55 c -41.62,-28.87 -85.76,-53.5 -122.26,-88.3 22.07,-6.8 45,-12.74 67.06,-18.68 20.39,34.81 39.06,70.47 55.2,106.98" /><path
         id="path46"
         style="fill:#231f20;fill-opacity:1;fill-rule:nonzero;stroke:none"
         d="m 2519.15,1726.44 c -1.71,-32.27 -9.35,-67.92 6.79,-97.63 6.79,-9.33 16.12,-22.07 28.86,-14.43 24.63,22.93 38.21,59.42 33.97,93.39 -11.06,28.87 -46.71,18.67 -69.62,18.67" /><path
         id="path48"
         style="fill:#231f20;fill-opacity:1;fill-rule:nonzero;stroke:none"
         d="m 4504.09,730.57 c -12.74,40.762 -28.87,79.828 -43.3,119.731 48.39,17.808 95.93,36.5 143.47,54.308 16.14,-38.199 31.43,-77.238 45.84,-116.277 23.79,8.469 47.54,16.969 71.33,26.297 -35.66,96.781 -73.01,192.721 -110.37,289.501 -23.79,-8.48 -47.56,-17.82 -71.33,-27.15 14.44,-38.21 28.87,-76.41 43.3,-114.628 -47.54,-21.211 -95.94,-39.043 -145.17,-56.043 -13.6,38.211 -28.01,76.41 -44.14,114.631 -22.93,-8.49 -46.7,-16.99 -69.63,-25.491 33.96,-97.609 72.16,-193.551 110.37,-290.347 22.93,8.5 45.86,16.988 69.63,25.468" /><path
         id="path50"
         style="fill:#231f20;fill-opacity:1;fill-rule:nonzero;stroke:none"
         d="m 1278.77,751.801 c 23.77,-6.801 48.4,-13.571 73.88,-19.531 11.02,40.761 22.06,81.519 33.09,122.269 44.15,-11.898 88.29,-24.629 133.29,-33.969 4.25,17.828 8.49,35.668 12.74,52.641 -43.29,12.73 -86.59,23.769 -129.04,34.801 4.24,22.07 8.49,44.16 13.59,66.23 44.99,-7.633 89.13,-21.23 133.27,-32.262 5.1,17.829 10.2,35.661 15.3,53.469 -68.78,18.701 -137.55,37.371 -205.48,55.201 -28.84,-99.341 -54.31,-199.509 -80.64,-298.849" /><path
         id="path52"
         style="fill:#231f20;fill-opacity:1;fill-rule:nonzero;stroke:none"
         d="m 1983.44,705.102 c -5.95,-25.473 -15.29,-54.313 -40.75,-67.051 -47.54,-25.469 -125.67,3.379 -124.81,63.668 6.79,68.75 28.86,134.98 39.05,203.75 -26.32,5.101 -52.63,10.203 -78.95,13.582 -7.65,-44.141 -17.83,-87.442 -27.17,-131.582 -9.35,-44.16 -22.92,-90.84 -5.11,-134.137 17.85,-45.863 64.53,-73.012 109.53,-84.91 47.54,-11.891 101.88,-15.274 145.17,11.898 33.13,20.371 50.11,58.571 58.58,95.078 12.75,59.434 25.47,118.844 36.53,179.141 -26.32,5.09 -51.8,10.191 -78.12,15.27 -11.88,-54.34 -22.08,-109.508 -33.95,-164.707" /><path
         id="path54"
         style="fill:#231f20;fill-opacity:1;fill-rule:nonzero;stroke:none"
         d="m 3973.48,831.609 c 46.68,24.629 100.16,16.993 149.42,7.653 -5.12,22.91 -6.8,47.539 -17.86,68.75 -92.52,23.769 -208.84,-10.172 -255.52,-97.614 -39.07,-69.628 -13.6,-165.566 53.47,-207.168 57.74,-39.898 134.98,-33.109 196.98,-7.64 25.46,11.879 54.33,24.609 71.3,48.402 -1.68,21.227 -8.49,42.438 -13.59,62.809 -39.9,-27.172 -81.48,-59.41 -131.58,-61.11 -48.4,-5.101 -100.18,24.61 -110.37,73.848 -12.74,45 16.13,93.391 57.75,112.07" /><path
         id="path56"
         style="fill:#231f20;fill-opacity:1;fill-rule:nonzero;stroke:none"
         d="m 3425.88,616.82 c 11.86,43.301 22.89,87.442 36.49,130.739 26.33,-38.2 46.7,-79.797 65.39,-121.399 -33.97,-4.262 -67.93,-6.801 -101.88,-9.34 z m -18.69,211.391 C 3371.53,712.762 3335.02,597.289 3301.9,480.98 c 28.03,0.84 56.89,3.399 84.9,5.102 7.64,22.91 15.29,46.68 22.09,70.449 50.08,4.258 100.18,9.348 150.26,11.891 11.89,-21.231 22.93,-42.442 34.82,-62.832 28.85,1.699 57.71,4.262 86.6,7.66 -55.17,109.512 -118.01,214.781 -175.76,322.609 -32.25,-1.699 -65.37,-4.25 -97.62,-7.648" /><path
         id="path58"
         style="fill:#231f20;fill-opacity:1;fill-rule:nonzero;stroke:none"
         d="m 2562.44,727.191 c 1.7,22.911 2.54,44.981 3.4,66.207 -61.98,28.872 -137.53,51.801 -202.06,17.84 -50.93,-24.629 -61.98,-100.179 -23.78,-140.937 33.96,-38.211 87.46,-46.68 125.65,-78.11 18.69,-13.57 10.19,-46.699 -12.72,-48.402 -52.65,-10.168 -99.34,21.231 -140.94,49.262 -1.71,-23.789 -4.25,-47.559 -5.95,-71.332 60.28,-36.5 137.53,-58.571 204.61,-28 52.65,23.769 71.32,99.332 33.96,143.472 -31.42,39.899 -84.04,50.938 -123.96,78.969 -11.88,8.469 -14.42,23.77 -19.51,36.5 53.47,30.551 112.05,-2.558 161.3,-25.469" /><path
         id="path60"
         style="fill:#231f20;fill-opacity:1;fill-rule:nonzero;stroke:none"
         d="m 3053.15,637.191 c -39.04,35.668 -97.64,39.059 -139.22,72.168 -16.13,15.27 1.7,38.2 20.37,40.743 46.68,9.339 90.84,-11.872 134.14,-25.473 0,22.07 -0.86,45 -1.7,67.07 -66.23,22.93 -145.17,39.91 -207.15,-0.84 -50.1,-30.558 -53.5,-108.668 -10.19,-146.027 38.2,-35.672 93.4,-39.043 135.84,-68.773 17.83,-11.039 13.57,-40.739 -6.8,-47.539 -53.47,-18.668 -105.25,11.039 -151.11,34.812 3.4,-27.172 -14.43,-72.152 21.23,-81.512 61.13,-25.468 138.38,-34.8 196.11,4.262 49.22,33.098 53.48,112.91 8.48,151.109" /><path
         id="path62"
         style="fill:#231f20;fill-opacity:1;fill-rule:nonzero;stroke:none"
         d="m 1536.98,4752.08 c 28.3,-2.84 52.01,0.89 71.14,11.21 19.11,10.31 29.61,25.05 31.55,44.22 1.19,11.83 -1.58,23.37 -8.27,34.61 -6.71,11.22 -22.76,27.97 -48.14,50.21 -1.62,1.49 -4.07,3.61 -7.35,6.38 -20.05,17.38 -29.78,29.15 -29.17,35.28 0.53,5.05 3.11,8.79 7.79,11.25 4.7,2.47 11.04,3.3 19.03,2.49 8.47,-0.84 18.37,-3.22 29.68,-7.12 11.32,-3.9 23.58,-9.23 36.78,-15.96 l 4.34,43.04 c -11.22,5.77 -22.54,10.33 -34.01,13.7 -11.44,3.37 -23.24,5.65 -35.39,6.86 -28.77,2.89 -52.35,-0.05 -70.77,-8.84 -18.39,-8.77 -28.46,-21.91 -30.23,-39.45 -1.13,-11.28 1.67,-22.4 8.42,-33.36 6.72,-10.97 22.47,-27.32 47.27,-49.06 0.73,-0.63 1.79,-1.51 3.12,-2.64 20.21,-17.29 29.84,-30.81 28.87,-40.56 -0.6,-6.02 -3.69,-10.53 -9.22,-13.52 -5.56,-2.97 -12.64,-4.04 -21.28,-3.18 -8.95,0.9 -19.05,4.13 -30.28,9.68 -11.23,5.55 -23.37,13.24 -36.43,23.07 l -5.05,-50.44 c 12.9,-8.15 25.62,-14.49 38.18,-19.02 12.52,-4.51 25.67,-7.46 39.42,-8.85" /><path
         id="path64"
         style="fill:#231f20;fill-opacity:1;fill-rule:nonzero;stroke:none"
         d="m 1863.41,4918.56 12.78,-0.77 c 13.87,-0.84 23.92,-3.84 30.16,-8.94 6.23,-5.12 9.05,-12.62 8.45,-22.51 -0.61,-10.11 -4.08,-17.06 -10.37,-20.86 -6.3,-3.8 -16.99,-5.23 -32.11,-4.31 l -12.34,0.75 z m -5.84,-96.13 21.63,-1.32 c 31.99,-1.94 56.23,2.14 72.69,12.22 16.45,10.1 25.38,26.37 26.72,48.8 1.41,23.1 -5.84,41.04 -21.73,53.83 -15.9,12.78 -40.19,20.16 -72.89,22.15 l -82.56,5.03 -14.18,-233.1 64.47,-3.91 5.85,96.3" /><path
         id="path66"
         style="fill:#231f20;fill-opacity:1;fill-rule:nonzero;stroke:none"
         d="m 2607.28,4882.71 12.86,-0.11 c 13.71,-0.1 23.68,-2.36 29.94,-6.77 6.27,-4.41 9.36,-11.29 9.28,-20.68 -0.08,-9.48 -3.11,-16.15 -9.09,-20.01 -5.99,-3.87 -16.32,-5.73 -30.99,-5.61 l -12.44,0.1 z m -0.78,-93.6 c 0.4,0 1.14,0.05 2.17,0.15 1.04,0.1 1.76,0.15 2.19,0.15 8.29,-0.07 14.98,-2.98 20.06,-8.71 5.07,-5.74 10.56,-18.12 16.5,-37.15 l 17.42,-54.73 68.91,-0.56 -28.86,76.42 c -3.91,10.53 -8.09,18.99 -12.55,25.4 -4.44,6.4 -9.49,11.12 -15.13,14.19 15.39,4.01 27.09,10.49 35.04,19.47 7.96,8.97 11.99,20.22 12.11,33.73 0.17,21.09 -8.09,37.3 -24.84,48.6 -16.71,11.3 -41.12,17.09 -73.24,17.35 l -83.23,0.69 -1.95,-234.26 64.58,-0.54 0.82,99.8" /><path
         id="path68"
         style="fill:#231f20;fill-opacity:1;fill-rule:nonzero;stroke:none"
         d="m 3261.43,4723.94 c 26.5,-20.8 61.91,-31.19 106.19,-31.19 15.16,0 29.06,1.32 41.72,3.95 12.68,2.63 25.02,6.75 37.09,12.34 v 45.44 c -15.33,-6.12 -28.09,-10.39 -38.24,-12.82 -10.18,-2.41 -20,-3.62 -29.45,-3.62 -23.42,0 -41.47,6.1 -54.15,18.3 -12.65,12.19 -18.98,29.73 -18.98,52.63 0,24.07 6.97,42.68 20.94,55.85 13.94,13.16 33.59,19.75 58.9,19.75 8.09,0 17.23,-1.05 27.37,-3.14 10.19,-2.1 20.86,-5.09 32.07,-8.95 v 41.91 c -12.25,3.97 -24.65,6.92 -37.25,8.86 -12.56,1.95 -25.92,2.91 -40.02,2.91 -44.28,0 -79.69,-10.75 -106.19,-32.24 -26.54,-21.5 -39.78,-50.35 -39.78,-86.57 0,-34.81 13.24,-62.61 39.78,-83.41" /><path
         id="path70"
         style="fill:#231f20;fill-opacity:1;fill-rule:nonzero;stroke:none"
         d="m 4388.93,4951.05 c 12.21,1.35 21.25,0.14 27.17,-3.63 5.92,-3.77 9.41,-10.58 10.51,-20.42 1.07,-9.75 -1.19,-17.03 -6.82,-21.87 -5.64,-4.84 -15.59,-8.05 -29.8,-9.63 l -10.36,-1.15 -6.15,54.97 z m 55.43,-118.61 c 1.17,-10.74 -1.02,-19.09 -6.6,-25.1 -5.57,-5.98 -14.57,-9.67 -27.03,-11.05 l -19.92,-2.23 -7.09,63.51 15.43,1.73 c 14.53,1.61 25.37,0.28 32.55,-4.01 7.23,-4.3 11.43,-11.93 12.66,-22.85 z m -25.68,-72.67 c 32.13,3.59 55.88,12.12 71.23,25.64 15.39,13.51 21.81,31.48 19.31,53.92 -1.36,12.35 -6.3,22.92 -14.74,31.67 -8.46,8.74 -20.22,15.39 -35.26,19.92 11.35,6.58 19.46,13.96 24.3,22.15 4.86,8.18 6.68,17.52 5.51,28.02 -2.03,18.28 -11.31,31.7 -27.83,40.27 -16.53,8.57 -38.56,11.32 -66.06,8.27 l -87.42,-9.75 25.59,-229.61 85.37,9.5" /><path
         id="path72"
         style="fill:#231f20;fill-opacity:1;fill-rule:nonzero;stroke:none"
         d="m 2299.57,88.3086 44.29,-11.8164 53.26,199.5278 -44.27,11.82 -53.28,-199.5314" /><path
         id="path74"
         style="fill:#231f20;fill-opacity:1;fill-rule:nonzero;stroke:none"
         d="m 2795.31,119.59 c -4.43,-5.578 -10.8,-8.352 -19.09,-8.352 -8.41,0 -14.77,2.774 -19.07,8.352 -4.33,5.57 -6.5,13.68 -6.5,24.34 0,10.742 2.17,18.89 6.5,24.402 4.3,5.52 10.66,8.277 19.07,8.277 8.29,0 14.66,-2.8 19.09,-8.359 4.42,-5.57 6.64,-13.668 6.64,-24.32 0,-10.66 -2.22,-18.77 -6.64,-24.34 z m -17.71,94.59 c -22.68,0 -41.21,-6.68 -55.61,-20.032 -14.39,-13.359 -21.59,-30.707 -21.59,-52 0,-19.039 6.1,-34.488 18.32,-46.3589 12.2,-11.8985 27.8,-17.8399 46.79,-17.8399 1.73,0 3.68,0.0821 5.88,0.2227 2.17,0.1601 4.66,0.3672 7.42,0.6797 L 2726.32,0 h 53.7 l 17.27,24.2617 1.71,2.2071 c 36.4,50.4921 54.58,88.6522 54.58,114.4922 0,22.109 -6.93,39.828 -20.8,53.187 -13.88,13.352 -32.27,20.032 -55.18,20.032" /><path
         id="path76"
         style="fill:#231f20;fill-opacity:1;fill-rule:nonzero;stroke:none"
         d="m 3173.05,88.8906 37.76,54.1014 c 3.26,4.61 5.93,8.887 8.04,12.797 2.13,3.922 3.93,7.813 5.37,11.66 l 2.43,-76.8787 z m 124.59,4.4883 -21.62,-0.6601 -3.91,125.3712 -47.94,-1.481 -88.77,-126.4684 1.11,-36.0312 91.17,2.832 1.66,-53.76952 49.41,1.53906 -1.67,53.76956 21.62,0.6797 -1.06,34.2187" /><path
         id="path78"
         style="fill:#231f20;fill-opacity:1;fill-rule:nonzero;stroke:none"
         d="m 3667.68,118.031 c -2.95,-6.402 -8.44,-10.531 -16.46,-12.34 -8.03,-1.839 -14.75,-0.492 -20.1,4.02 -5.37,4.488 -9.24,11.988 -11.64,22.519 -2.37,10.411 -2.09,18.79 0.82,25.2 2.85,6.359 8.34,10.468 16.35,12.3 8.04,1.821 14.78,0.489 20.19,-4 5.43,-4.511 9.32,-11.96 11.66,-22.371 2.42,-10.5 2.13,-18.961 -0.82,-25.328 z m 20.76,79.36 c -14.26,8.961 -30.51,11.379 -48.77,7.218 -1.66,-0.39 -3.47,-0.871 -5.49,-1.461 -1.99,-0.609 -4.33,-1.367 -7.03,-2.289 l 32.93,88.071 -51.85,-11.801 -11.21,-27.027 -0.98,-2.5 c -23.69,-57.262 -32.62,-98.512 -26.89,-123.77 4.92,-21.602 15.48,-37.4414 31.71,-47.5429 16.25,-10.0703 35.36,-12.6289 57.37,-7.6094 21.7,4.9219 37.95,15.5 48.79,31.7503 10.84,16.23 13.86,34.769 9.12,55.59 -4.22,18.589 -13.46,32.378 -27.7,41.371" /><path
         id="path80"
         style="fill:#231f20;fill-opacity:1;fill-rule:nonzero;stroke:none"
         d="m 2219.38,4888.55 c 9.39,4.42 19.52,6.43 29.66,6.51 1.19,0.07 2.36,0.18 3.57,0.18 7,0 13.29,-1.15 18.95,-3.31 30.55,-8.88 55.82,-35.77 53.09,-72.78 4.25,-57.67 -58.59,-92.82 -105.27,-69.39 -56.04,20.72 -55.19,118.05 0,138.79 z m -63.65,-157 c 24.52,-21.96 56.83,-32.93 96.88,-32.93 40.2,0 72.49,10.92 96.86,32.77 24.35,21.84 36.55,51.01 36.55,87.5 0,36.59 -12.2,65.78 -36.55,87.57 -24.37,21.8 -56.66,32.7 -96.86,32.7 -40.05,0 -72.36,-10.96 -96.88,-32.86 -24.52,-21.91 -36.79,-51.05 -36.79,-87.41 0,-36.27 12.27,-65.38 36.79,-87.34" /><path
         id="path82"
         style="fill:#231f20;fill-opacity:1;fill-rule:nonzero;stroke:none"
         d="m 2867.09,4877.42 h 62.86 v -0.16 h 6.32 v -191.91 h 57.66 v 192.17 h 21.93 v -0.1 h 24.57 v -0.34 h 37.88 v 42.1 h -16.04 v 0.44 h -195.18 v -0.18 h -14.41 v -41.83 h 14.41 v -0.19" /><path
         id="path84"
         style="fill:#231f20;fill-opacity:1;fill-rule:nonzero;stroke:none"
         d="m 3787.15,4708.62 -1.97,42.15 -83.16,-3.9 v -0.06 l -5.16,-0.18 -18.83,-0.89 -0.02,0.2 -17.87,-0.63 -6.8,190.96 -54.78,-1.99 11,-234.01 177.59,8.35" /><path
         id="path86"
         style="fill:#231f20;fill-opacity:1;fill-rule:nonzero;stroke:none"
         d="m 3961.1,4738.88 c 20.88,-12.57 50.06,-17.67 87.58,-15.29 37.52,2.39 65.74,11.13 84.68,26.22 18.93,15.1 27.58,35.72 25.92,61.85 l -9.86,155.43 -57.44,-3.64 c 0.1,-1.08 0.23,-2.13 0.27,-3.22 l 4.77,-131.44 c 1.25,-34.31 -23.17,-63.05 -54.57,-64.18 -31.39,-1.15 -57.84,25.73 -59.09,60.05 l -0.29,7.78 c 0,0.02 0,0.05 0,0.08 l -3.67,93.27 c -0.08,1.96 0,3.89 0.08,5.82 l -0.9,24.5 c 0,0.04 0,0.09 0,0.14 l -61.11,-3.89 9.84,-155.43 c 1.68,-26.13 12.93,-45.48 33.79,-58.05" /></g></g></svg>